<svg width="512" height="512" viewBox="0 0 512 512" xmlns="http://www.w3.org/2000/svg">
  <!-- Background -->
  <rect width="512" height="512" fill="#161b22" rx="80"/>
  
  <!-- CPU Icon - Centered -->
  <g transform="translate(256, 256)">
    <!-- Main chip body -->
    <rect x="-80" y="-80" width="160" height="160" fill="#2f81f7" rx="8"/>
    
    <!-- Inner detail -->
    <rect x="-60" y="-60" width="120" height="120" fill="#161b22" rx="4"/>
    <rect x="-50" y="-50" width="100" height="100" fill="#2f81f7" rx="4"/>
    
    <!-- Circuit lines -->
    <line x1="-30" y1="-20" x2="30" y2="-20" stroke="#161b22" stroke-width="4"/>
    <line x1="-30" y1="0" x2="30" y2="0" stroke="#161b22" stroke-width="4"/>
    <line x1="-30" y1="20" x2="30" y2="20" stroke="#161b22" stroke-width="4"/>
    
    <!-- Pins - Left side -->
    <rect x="-120" y="-50" width="30" height="12" fill="#2f81f7" rx="2"/>
    <rect x="-120" y="-20" width="30" height="12" fill="#2f81f7" rx="2"/>
    <rect x="-120" y="10" width="30" height="12" fill="#2f81f7" rx="2"/>
    <rect x="-120" y="40" width="30" height="12" fill="#2f81f7" rx="2"/>
    
    <!-- Pins - Right side -->
    <rect x="90" y="-50" width="30" height="12" fill="#2f81f7" rx="2"/>
    <rect x="90" y="-20" width="30" height="12" fill="#2f81f7" rx="2"/>
    <rect x="90" y="10" width="30" height="12" fill="#2f81f7" rx="2"/>
    <rect x="90" y="40" width="30" height="12" fill="#2f81f7" rx="2"/>
    
    <!-- Pins - Top side -->
    <rect x="-50" y="-120" width="12" height="30" fill="#2f81f7" rx="2"/>
    <rect x="-20" y="-120" width="12" height="30" fill="#2f81f7" rx="2"/>
    <rect x="10" y="-120" width="12" height="30" fill="#2f81f7" rx="2"/>
    <rect x="40" y="-120" width="12" height="30" fill="#2f81f7" rx="2"/>
    
    <!-- Pins - Bottom side -->
    <rect x="-50" y="90" width="12" height="30" fill="#2f81f7" rx="2"/>
    <rect x="-20" y="90" width="12" height="30" fill="#2f81f7" rx="2"/>
    <rect x="10" y="90" width="12" height="30" fill="#2f81f7" rx="2"/>
    <rect x="40" y="90" width="12" height="30" fill="#2f81f7" rx="2"/>
  </g>
</svg>
